<svg xmlns="http://www.w3.org/2000/svg" width="84" height="28" viewBox="0 0 84 28" fill="none">
    <g clip-path="url(#clip0_622_2948)">
        <path d="M15.6152 0C18.7763 3.8448e-06 21.6928 0.598293 23.8594 1.61328C25.9388 2.58754 27.7117 4.15108 27.7119 6.24902C27.7119 6.61359 27.6565 6.96919 27.5518 7.31055L26.0107 16.6055C26.0587 16.5752 26.1064 16.5454 26.1533 16.5156C26.3224 16.4084 26.4906 16.3005 26.6543 16.1953L26.6553 16.1943C27.0219 15.9587 27.3688 15.7351 27.6689 15.5576C28.0754 15.3173 28.5818 15.043 29.085 14.9678C29.3668 14.9257 29.7238 14.933 30.0791 15.1074C30.4412 15.2852 30.6742 15.5737 30.8174 15.8584C31.0697 16.3603 31.1211 17.0099 31.1211 17.6475C31.121 19.419 30.3047 22.0323 27.8945 24.1924C25.4701 26.365 21.5263 28 15.3955 28C9.26585 28 5.39382 26.365 3.0459 24.1777C0.709251 22.0009 5.10764e-05 19.3848 0 17.6475C4.43164e-07 17.0145 0.046136 16.3776 0.275391 15.8867C0.404607 15.6101 0.624112 15.3107 0.985352 15.1211C1.34553 14.9321 1.71021 14.9238 1.99414 14.9688C2.49161 15.0476 2.98546 15.3336 3.36719 15.5703C3.63534 15.7366 3.9496 15.9468 4.28027 16.168H4.28125C4.45642 16.2851 4.63658 16.4064 4.81738 16.5254C4.95768 16.6177 5.10331 16.7124 5.25391 16.8086L3.67969 7.31055C3.5749 6.9692 3.51856 6.61358 3.51855 6.24902C3.51879 4.15101 5.29254 2.58753 7.37207 1.61328C9.53856 0.598333 12.4543 5.0244e-05 15.6152 0ZM44.7568 6.5C45.8309 6.39079 46.9054 6.4365 47.9795 6.63672C49.0719 6.8188 50.0557 7.15588 50.9297 7.64746C51.3666 7.92052 51.7769 8.2486 52.1592 8.63086C52.3127 8.78447 52.4637 8.9569 52.6133 9.14648C52.2123 9.7796 51.8945 10.5097 51.6494 11.3203L51.6465 11.3291L51.6445 11.3379C51.3879 12.236 51.2705 13.2616 51.2705 14.3936V14.418L51.2715 14.4424C51.3329 15.9167 51.7042 17.2628 52.4102 18.4482C52.4811 18.5779 52.5564 18.7065 52.6367 18.833C52.4571 19.0607 52.2624 19.2663 52.0498 19.4463C51.6129 19.8104 51.166 20.1018 50.7109 20.3203C50.256 20.5387 49.8007 20.7023 49.3457 20.8115C48.9088 20.9208 48.4803 20.9847 48.0615 21.0029C47.6612 21.0211 47.279 21.012 46.915 20.9756C46.0594 20.9028 45.2399 20.6844 44.457 20.3203C44.7118 21.7037 44.7748 22.9328 44.6475 24.0068C44.5929 24.4619 44.4932 24.9089 44.3477 25.3457C44.202 25.7825 43.9917 26.1737 43.7188 26.5195C43.4458 26.8653 43.091 27.1386 42.6543 27.3389C42.2356 27.5573 41.7165 27.6669 41.0977 27.667C40.606 27.667 40.1685 27.5939 39.7861 27.4482C39.4038 27.3208 39.0575 27.1481 38.748 26.9297C38.4568 26.7112 38.2018 26.4563 37.9834 26.165C37.765 25.892 37.574 25.6004 37.4102 25.291C37.0461 24.5811 36.8003 23.7796 36.6729 22.8877C36.4726 21.0853 36.4178 19.3367 36.5088 17.6436C36.5452 16.9155 36.6183 16.1687 36.7275 15.4043C36.855 14.6215 37.0276 13.8558 37.2461 13.1094C37.4645 12.3449 37.7378 11.6165 38.0654 10.9248C38.4113 10.2149 38.8307 9.57703 39.3223 9.0127C39.9595 8.28463 40.7608 7.71067 41.7256 7.29199C42.6904 6.87336 43.701 6.60925 44.7568 6.5ZM19.6357 11.0479C18.7193 11.0845 17.8926 11.5612 17.2432 12.3359C17.6497 12.0889 18.1031 11.9689 18.5654 11.9941C19.2724 12.0329 19.9482 12.4071 20.4561 13.041C20.8939 13.5876 21.1789 14.293 21.2734 15.0479C21.2986 15.2486 21.1398 15.4197 20.9375 15.4277L20.4492 15.4473C20.0446 15.4638 19.9634 16.0271 20.3467 16.1592L20.9199 16.3564C21.0936 16.4164 21.1981 16.5961 21.1484 16.7725C20.9436 17.4979 20.5522 18.1168 20.0322 18.5283C19.4393 18.9974 18.7221 19.1625 18.0254 18.9912C17.3289 18.8198 16.7039 18.3246 16.2754 17.6045C16.0623 17.2464 15.9048 16.8458 15.8096 16.4248C15.7985 16.6746 15.7987 16.9291 15.8096 17.1865C15.9492 20.4869 17.8888 23.0896 20.1416 23C22.3944 22.9101 24.1072 20.1617 23.9678 16.8613C23.8282 13.5609 21.8886 10.9582 19.6357 11.0479ZM10.6299 10.8076C9.71337 10.8442 8.88579 11.321 8.23633 12.0957C8.6429 11.8486 9.09708 11.7296 9.55957 11.7549C10.2666 11.7936 10.9423 12.1678 11.4502 12.8018C11.8879 13.3484 12.1731 14.0538 12.2676 14.8086C12.2926 15.0093 12.1339 15.1794 11.9316 15.1875L11.4434 15.207C11.0388 15.2234 10.957 15.7865 11.3398 15.9189L11.9141 16.1172C12.0877 16.1772 12.1924 16.3568 12.1426 16.5332C11.9377 17.2585 11.5462 17.8766 11.0264 18.2881C10.4334 18.7573 9.7163 18.9233 9.01953 18.752C8.32306 18.5806 7.6981 18.0852 7.26953 17.3652C7.05643 17.0071 6.89898 16.6056 6.80371 16.1846C6.79266 16.4343 6.79284 16.6888 6.80371 16.9463C6.94319 20.2469 8.88281 22.8504 11.1357 22.7607C13.3885 22.6708 15.1014 19.9224 14.9619 16.6221C14.8224 13.3215 12.8828 10.718 10.6299 10.8076ZM60.4268 6.71875C61.3004 6.71878 62.0745 6.81936 62.748 7.01953C63.4215 7.21976 64.0046 7.48394 64.4961 7.81152C64.9275 8.08892 65.2937 8.39958 65.5947 8.74219C65.5119 8.98758 65.4459 9.24085 65.4023 9.50195C65.2694 10.3001 65.2829 11.1123 65.4336 11.9307V11.9336L65.4346 11.9365C65.5712 12.6589 65.7535 13.312 65.9912 13.8789C66.1273 14.2279 66.3067 14.6523 66.5264 15.1465L66.5332 15.1621L66.541 15.1787C66.7143 15.5385 66.9099 15.9134 67.125 16.3027C66.992 16.7946 66.8267 17.242 66.626 17.6436C66.3347 18.1715 65.9884 18.6356 65.5879 19.0361C65.2056 19.4184 64.8328 19.7373 64.4688 19.9922C64.05 20.3017 63.6215 20.5474 63.1846 20.7295C62.8207 20.875 62.4658 20.9848 62.1201 21.0576C61.7926 21.1486 61.5009 21.2126 61.2461 21.249C60.9369 21.3036 60.6633 21.331 60.4268 21.3311C59.4256 21.331 58.5419 21.2305 57.7773 21.0303C57.031 20.83 56.3749 20.5751 55.8105 20.2656C55.2463 19.9379 54.7638 19.5642 54.3633 19.1455C53.9811 18.7269 53.6712 18.2991 53.4346 17.8623C53.1887 17.4524 52.9913 17.0155 52.8369 16.5537C52.8272 16.525 52.8189 16.4957 52.8096 16.4668C52.7756 16.3605 52.7421 16.2535 52.7129 16.1445C52.7041 16.1119 52.6969 16.0788 52.6885 16.0459C52.6621 15.9418 52.6363 15.837 52.6143 15.7305C52.6007 15.6656 52.5901 15.5999 52.5781 15.5342C52.5647 15.4598 52.5504 15.3851 52.5391 15.3096C52.5239 15.2097 52.5125 15.1087 52.501 15.0068C52.4952 14.9556 52.4873 14.9043 52.4824 14.8525C52.4682 14.7019 52.4576 14.5486 52.4512 14.3936C52.4512 13.3377 52.5609 12.4267 52.7793 11.6621C52.7831 11.6497 52.7872 11.6374 52.791 11.625C52.8238 11.518 52.8574 11.4131 52.8926 11.3105C52.906 11.2717 52.9208 11.2336 52.9346 11.1953C53.1435 10.6117 53.3913 10.102 53.6807 9.66797C54.0629 9.10378 54.4906 8.63943 54.9639 8.27539C55.4554 7.91132 55.947 7.61985 56.4385 7.40137C57.6037 6.89158 58.9338 6.66418 60.4268 6.71875ZM79.0225 6.74609C79.5322 6.65508 80.1059 6.67334 80.7432 6.80078C81.3074 6.9282 81.7625 7.13754 82.1084 7.42871C82.4725 7.70176 82.7365 8.02986 82.9004 8.41211C83.0825 8.77627 83.1921 9.1864 83.2285 9.6416C83.2831 10.0784 83.2831 10.5153 83.2285 10.9521C83.1193 11.99 82.7913 13.1281 82.2451 14.3662C81.6625 15.6044 81.0066 16.7059 80.2783 17.6709C79.9688 18.0896 79.6235 18.4998 79.2412 18.9004C78.8588 19.2828 78.4487 19.6289 78.0117 19.9385C77.5748 20.2479 77.1106 20.5029 76.6191 20.7031C76.1277 20.8852 75.6086 20.9755 75.0625 20.9756C74.2978 20.9756 73.5871 20.8395 72.9316 20.5664C72.2761 20.2751 71.666 19.9015 71.1016 19.4463C70.5554 18.9911 70.0639 18.4905 69.627 17.9443C69.19 17.3799 68.7981 16.8154 68.4521 16.251C68.1244 15.6866 67.8422 15.1586 67.6055 14.667C67.387 14.1754 67.2144 13.7652 67.0869 13.4375C66.8867 12.9641 66.7231 12.3904 66.5957 11.7168C66.4683 11.025 66.4592 10.3516 66.5684 9.69629C66.6776 9.04079 66.9507 8.44894 67.3877 7.9209C67.8247 7.39292 68.5162 7.02841 69.4629 6.82812C70.009 6.71891 70.5097 6.71897 70.9648 6.82812C71.42 6.93736 71.8302 7.11917 72.1943 7.37402C72.5767 7.6107 72.9046 7.91129 73.1777 8.27539C73.4691 8.62134 73.7239 8.9858 73.9424 9.36816C74.434 10.2603 74.8076 11.3163 75.0625 12.5361C75.2082 11.2799 75.5169 10.1873 75.9902 9.25879C76.1905 8.87646 76.4281 8.51291 76.7012 8.16699C76.9924 7.80298 77.3288 7.50229 77.7109 7.26562C78.0933 7.01071 78.5308 6.83713 79.0225 6.74609ZM60.2627 13.3281C59.9533 13.3282 59.68 13.447 59.4434 13.6836C59.225 13.9202 59.1336 14.1844 59.1699 14.4756C59.2063 14.8576 59.3162 15.1219 59.498 15.2676C59.6982 15.413 59.9535 15.4863 60.2627 15.4863C60.5721 15.4863 60.8271 15.3949 61.0273 15.2129C61.2276 15.0309 61.3281 14.785 61.3281 14.4756C61.3281 14.1845 61.2366 13.9201 61.0547 13.6836C60.8727 13.4472 60.6084 13.3282 60.2627 13.3281ZM45.7402 13.3281C45.4309 13.3281 45.1575 13.4471 44.9209 13.6836C44.7027 13.9201 44.6112 14.1845 44.6475 14.4756C44.6839 14.8577 44.7936 15.1219 44.9756 15.2676C45.1758 15.4132 45.4308 15.4853 45.7402 15.4854C46.0496 15.4853 46.3047 15.3948 46.5049 15.2129C46.7049 15.0309 46.8056 14.7848 46.8057 14.4756C46.8056 14.1845 46.7141 13.9201 46.5322 13.6836C46.3502 13.4471 46.086 13.3282 45.7402 13.3281Z" fill="white"/>
    </g>
    <defs>
        <clipPath id="clip0_622_2948">
            <rect width="84" height="28" fill="white"/>
        </clipPath>
    </defs>
</svg>